# xmcd CD database file
#
# Track frame offsets:
#	150
#	6654
#	10347
#	14610
#	36270
#	64592
#	65175
#	80692
#	86115
#	104507
#	107440
#	120265
#	149260
#	152780
#	167145
#	171520
#	195127
#	220095
#
# Disc length: 3020 seconds
#
# Revision: 2
# Processed by: cddbd v1.5PL3 Copyright (c) Steve Scherf et al.
# Submitted via: CDex 1.50
#
DISCID=f90bca12
DTITLE=Circle Of Light - The Eternally Preserved Wisdom Of Enlightenment disc 2
DYEAR=1998
DGENRE=New Age
TTITLE0=It Is So But If It Were
TTITLE1=Staying Connected To Nature
TTITLE2=Spiritual Nature Of Family
TTITLE3=Health and Self Care
TTITLE4=Spiritual Healing
TTITLE5=Part 3
TTITLE6=Respecting The Living Environment
TTITLE7=To A Tree
TTITLE8=Environment-Friendly Lifestyle
TTITLE9=Stopping Pollution
TTITLE10=Good Karma Lifestyle
TTITLE11=Decentralizing Food Production
TTITLE12=Genesis Recollected
TTITLE13=Widespread Mass Planting
TTITLE14=Moksha (Liberation)
TTITLE15=Naturalization
TTITLE16=The Unfolding Of Global Enlightenment
TTITLE17=untitled
EXTD=YEAR: 1998
EXTT0=
EXTT1=
EXTT2=
EXTT3=
EXTT4=
EXTT5=
EXTT6=
EXTT7=
EXTT8=
EXTT9=
EXTT10=
EXTT11=
EXTT12=
EXTT13=
EXTT14=
EXTT15=
EXTT16=
EXTT17=
PLAYORDER=
